<svg xmlns="http://www.w3.org/2000/svg" width="481pt" height="291pt" viewBox="0 0 481 291" version="1.1" xmlns:xlink="http://www.w3.org/1999/xlink">
  <g id="surface2" transform="matrix(1,0,0,1,-3,2)" data-tpl_matrix="1,0,0,1,0,0">
    <path style="stroke:none;fill-rule:evenodd;fill:rgb(36.078431%,90.588235%,19.607843%);fill-opacity:1" d="M 333.398438 187.101562 C 322.234375 196.898438 310.367188 204.949219 297.800781 211.25 C 285.265625 217.582031 272.5 222.300781 259.5 225.398438 C 246.5 228.5 233.75 230.117188 221.25 230.25 C 208.75 230.382812 196.964844 229.148438 185.898438 226.550781 C 174.800781 223.984375 164.882812 220.167969 156.148438 215.101562 C 147.417969 210.066406 140.316406 203.917969 134.851562 196.648438 C 129.382812 189.382812 126.035156 181.132812 124.800781 171.898438 C 123.398438 160.964844 124.351562 150.25 127.648438 139.75 C 130.949219 129.25 136.699219 119.214844 144.898438 109.648438 C 153.101562 100.082031 163.882812 91.25 177.25 83.148438 C 163.617188 88.148438 151.648438 94.484375 141.351562 102.148438 C 131.050781 109.816406 122.648438 118.351562 116.148438 127.75 C 109.617188 137.148438 105.199219 146.949219 102.898438 157.148438 C 100.601562 167.351562 100.632812 177.5 103 187.601562 C 105.464844 197.632812 110.066406 206.449219 116.800781 214.050781 C 123.535156 221.683594 131.984375 227.984375 142.148438 232.949219 C 152.316406 237.917969 163.75 241.417969 176.449219 243.449219 C 189.183594 245.484375 202.734375 245.917969 217.101562 244.75 C 231.5 243.582031 246.300781 240.683594 261.5 236.050781 C 277.265625 231.148438 291.816406 224.882812 305.148438 217.25 C 318.515625 209.617188 330.300781 201.050781 340.5 191.550781 C 350.699219 182.015625 358.984375 171.964844 365.351562 161.398438 L 355.5 161.398438 C 350.398438 169.898438 343.035156 178.464844 333.398438 187.101562 "/>
    <path style="stroke:none;fill-rule:evenodd;fill:rgb(34.117647%,88.235294%,92.549020%);fill-opacity:1" d="M 376.75 103.351562 C 374.285156 93.316406 369.683594 84.484375 362.949219 76.851562 C 356.214844 69.214844 347.765625 62.917969 337.601562 57.949219 C 327.433594 53.015625 316 49.535156 303.300781 47.5 C 290.566406 45.464844 277.015625 45.035156 262.648438 46.199219 C 248.25 47.367188 233.449219 50.265625 218.25 54.898438 C 215.449219 55.765625 212.667969 56.699219 209.898438 57.699219 L 209.898438 89.050781 C 229.632812 80.617188 248.265625 75.5 265.800781 73.699219 C 283.332031 71.898438 299.050781 72.800781 312.949219 76.398438 C 326.851562 79.964844 338.214844 85.601562 347.050781 93.300781 C 355.917969 101 361.535156 110.101562 363.898438 120.601562 C 366.265625 131.101562 364.699219 142.382812 359.199219 154.449219 L 369.148438 154.449219 C 373.449219 145.949219 376.285156 137.382812 377.648438 128.75 C 379.015625 120.117188 378.714844 111.648438 376.75 103.351562 "/>
    <path style="stroke:none;fill-rule:evenodd;fill:rgb(92.156863%,20.392157%,28.235294%);fill-opacity:1" d="M17.929688-21.591797L17.929688-19.189453L11.484375-19.189453L11.484375 0L7.939453 0L7.939453-19.189453L1.494141-19.189453L1.494141-21.591797L17.929688-21.591797ZM25.107422-16.523438L25.488281-14.824219L25.488281-5.859375L25.488281-5.800781L25.488281 0L21.943359 0L21.943359-16.523438L25.107422-16.523438M26.689453-15.791016Q27.421875-16.201172 28.447266-16.420898Q29.472656-16.640625 31.230469-16.640625L31.230469-12.949219Q30.410156-13.183594 29.238281-13.212891Q28.593750-13.212891 27.934570-13.110352Q27.275391-13.007813 26.689453-12.802734L26.689453-15.791016ZM37.880859-4.980469Q37.880859-3.662109 38.422852-3.017578Q38.964844-2.373047 39.990234-2.255859L39.990234 0.117188Q39.873047 0.146484 39.609375 0.146484Q38.613281 0.146484 37.690430-0.117188Q36.767578-0.380859 36.064453-0.966797Q35.361328-1.552734 34.965820-2.519531Q34.570313-3.486328 34.570313-4.892578Q34.570313-6.240234 35.141602-7.221680Q35.712891-8.203125 36.606445-8.833008Q37.500000-9.462891 38.642578-9.770508Q39.785156-10.078125 40.957031-10.078125L42.246094-10.078125L42.246094-7.998047L41.601563-7.998047Q41.015625-7.998047 40.371094-7.880859Q39.726563-7.763672 39.169922-7.441406Q38.613281-7.119141 38.247070-6.518555Q37.880859-5.917969 37.880859-4.980469M46.992188-4.892578Q46.992188-4.658203 47.021484-4.204102Q47.050781-3.750000 47.138672-3.281250Q47.226563-2.812500 47.416992-2.431641Q47.607422-2.050781 47.929688-1.933594L46.992188 0.029297Q46.611328 0.029297 46.186523-0.146484Q45.761719-0.322266 45.366211-0.644531Q44.970703-0.966797 44.692383-1.362305Q44.414063-1.757813 44.267578-2.226563Q43.974609-1.494141 43.110352-0.922852Q42.246094-0.351563 41.191406-0.087891L41.191406-2.314453Q41.894531-2.460938 42.465820-2.885742Q43.037109-3.310547 43.447266-3.896484L43.447266-10.078125Q43.447266-11.513672 43.300781-12.363281Q43.154297-13.212891 42.802734-13.608398Q42.451172-14.003906 41.938477-14.106445Q41.425781-14.208984 40.722656-14.208984Q40.078125-14.208984 39.506836-14.047852Q38.935547-13.886719 38.452148-13.666992Q37.968750-13.447266 37.602539-13.183594Q37.236328-12.919922 37.060547-12.773438L35.742188-14.794922Q36.035156-15.117188 36.621094-15.454102Q37.207031-15.791016 37.968750-16.054688Q38.730469-16.318359 39.624023-16.479492Q40.517578-16.640625 41.484375-16.640625Q42.363281-16.640625 43.198242-16.464844Q44.033203-16.289063 44.721680-15.878906Q45.410156-15.468750 45.922852-14.780273Q46.435547-14.091797 46.640625-13.066406Q46.845703-12.041016 46.918945-11.000977Q46.992188-9.960938 46.992188-8.935547L46.992188-5.126953L46.992188-4.892578ZM52.324219-16.523438L56.337891-16.523438L59.414063-11.103516L59.414063-4.951172L56.425781 0L52.353516 0L57.744141-8.291016L52.324219-16.523438M67.763672-16.523438L62.343750-8.291016L67.734375 0L63.662109 0L60.615234-5.332031L60.615234-11.572266L63.750000-16.523438L67.763672-16.523438ZM72.246094-16.523438L76.259766-16.523438L79.335938-11.103516L79.335938-4.951172L76.347656 0L72.275391 0L77.666016-8.291016L72.246094-16.523438M87.685547-16.523438L82.265625-8.291016L87.656250 0L83.583984 0L80.537109-5.332031L80.537109-11.572266L83.671875-16.523438L87.685547-16.523438ZM115.869141-21.591797L115.869141-19.189453L109.423828-19.189453L109.423828 0L105.878906 0L105.878906-19.189453L99.433594-19.189453L99.433594-21.591797L115.869141-21.591797ZM123.046875-16.523438L123.427734-14.824219L123.427734-5.859375L123.427734-5.800781L123.427734 0L119.882813 0L119.882813-16.523438L123.046875-16.523438M124.628906-15.791016Q125.361328-16.201172 126.386719-16.420898Q127.412109-16.640625 129.169922-16.640625L129.169922-12.949219Q128.349609-13.183594 127.177734-13.212891Q126.533203-13.212891 125.874023-13.110352Q125.214844-13.007813 124.628906-12.802734L124.628906-15.791016ZM135.820313-4.980469Q135.820313-3.662109 136.362305-3.017578Q136.904297-2.373047 137.929688-2.255859L137.929688 0.117188Q137.812500 0.146484 137.548828 0.146484Q136.552734 0.146484 135.629883-0.117188Q134.707031-0.380859 134.003906-0.966797Q133.300781-1.552734 132.905273-2.519531Q132.509766-3.486328 132.509766-4.892578Q132.509766-6.240234 133.081055-7.221680Q133.652344-8.203125 134.545898-8.833008Q135.439453-9.462891 136.582031-9.770508Q137.724609-10.078125 138.896484-10.078125L140.185547-10.078125L140.185547-7.998047L139.541016-7.998047Q138.955078-7.998047 138.310547-7.880859Q137.666016-7.763672 137.109375-7.441406Q136.552734-7.119141 136.186523-6.518555Q135.820313-5.917969 135.820313-4.980469M144.931641-4.892578Q144.931641-4.658203 144.960938-4.204102Q144.990234-3.750000 145.078125-3.281250Q145.166016-2.812500 145.356445-2.431641Q145.546875-2.050781 145.869141-1.933594L144.931641 0.029297Q144.550781 0.029297 144.125977-0.146484Q143.701172-0.322266 143.305664-0.644531Q142.910156-0.966797 142.631836-1.362305Q142.353516-1.757813 142.207031-2.226563Q141.914063-1.494141 141.049805-0.922852Q140.185547-0.351563 139.130859-0.087891L139.130859-2.314453Q139.833984-2.460938 140.405273-2.885742Q140.976563-3.310547 141.386719-3.896484L141.386719-10.078125Q141.386719-11.513672 141.240234-12.363281Q141.093750-13.212891 140.742188-13.608398Q140.390625-14.003906 139.877930-14.106445Q139.365234-14.208984 138.662109-14.208984Q138.017578-14.208984 137.446289-14.047852Q136.875000-13.886719 136.391602-13.666992Q135.908203-13.447266 135.541992-13.183594Q135.175781-12.919922 135-12.773438L133.681641-14.794922Q133.974609-15.117188 134.560547-15.454102Q135.146484-15.791016 135.908203-16.054688Q136.669922-16.318359 137.563477-16.479492Q138.457031-16.640625 139.423828-16.640625Q140.302734-16.640625 141.137695-16.464844Q141.972656-16.289063 142.661133-15.878906Q143.349609-15.468750 143.862305-14.780273Q144.375000-14.091797 144.580078-13.066406Q144.785156-12.041016 144.858398-11.000977Q144.931641-9.960938 144.931641-8.935547L144.931641-5.126953L144.931641-4.892578ZM153.691406-16.523438L154.072266-14.853516L154.072266 0L150.527344 0L150.527344-16.523438L153.691406-16.523438M162.832031-14.707031Q163.330078-14.208984 163.608398-13.549805Q163.886719-12.890625 164.018555-12.172852Q164.150391-11.455078 164.179688-10.722656Q164.208984-9.990234 164.208984-9.287109L164.208984-0.585938L164.208984 0L160.634766 0L160.634766-8.994141Q160.634766-9.990234 160.546875-10.898438Q160.458984-11.806641 160.136719-12.509766Q159.814453-13.212891 159.257813-13.608398Q158.701172-14.003906 157.705078-14.003906Q157.294922-14.003906 156.606445-13.872070Q155.917969-13.740234 155.273438-13.447266L155.273438-15.703125Q156.064453-16.113281 156.987305-16.406250Q157.910156-16.699219 158.789063-16.699219Q160.107422-16.699219 161.015625-16.157227Q161.923828-15.615234 162.832031-14.707031ZM168.720703-11.806641Q168.720703-12.919922 169.130859-13.813477Q169.541016-14.707031 170.273438-15.336914Q171.005859-15.966797 171.928711-16.333008Q172.851563-16.699219 173.847656-16.787109L173.847656-13.857422Q173.085938-13.710938 172.661133-13.242188Q172.236328-12.773438 172.236328-11.923828Q172.236328-11.220703 172.690430-10.795898Q173.144531-10.371094 173.847656-10.048828L173.847656-6.914063Q173.349609-7.060547 172.836914-7.250977Q172.324219-7.441406 171.826172-7.675781Q170.273438-8.496094 169.497070-9.404297Q168.720703-10.312500 168.720703-11.806641M178.505859-13.037109Q177.714844-13.447266 176.821289-13.652344Q175.927734-13.857422 175.048828-13.916016L175.048828-16.816406Q176.367188-16.757813 177.480469-16.450195Q178.593750-16.142578 179.648438-15.468750L178.505859-13.037109M170.273438-3.691406Q170.859375-3.281250 171.665039-2.929688Q172.470703-2.578125 173.701172-2.578125L173.847656-2.578125L173.847656 0.146484Q173.115234 0.146484 172.500000 0.102539Q171.884766 0.058594 171.284180-0.102539Q170.683594-0.263672 170.068359-0.556641Q169.453125-0.849609 168.779297-1.318359L170.273438-3.691406M175.048828-9.580078Q175.927734-9.287109 176.835938-8.935547Q177.744141-8.583984 178.491211-8.056641Q179.238281-7.529297 179.721680-6.752930Q180.205078-5.976563 180.205078-4.804688Q180.205078-3.662109 179.794922-2.812500Q179.384766-1.962891 178.696289-1.347656Q178.007813-0.732422 177.070313-0.380859Q176.132813-0.029297 175.048828 0.087891L175.048828-2.695313Q176.044922-2.871094 176.586914-3.325195Q177.128906-3.779297 177.128906-4.541016Q177.128906-5.302734 176.528320-5.727539Q175.927734-6.152344 175.048828-6.474609L175.048828-9.580078ZM187.998047-16.523438L188.378906-14.853516L188.378906 6.503906L184.804688 6.503906L184.804688-16.523438L187.998047-16.523438M199.248047-11.513672Q199.599609-10.166016 199.599609-8.496094Q199.599609-6.826172 199.204102-5.258789Q198.808594-3.691406 198.002930-2.490234Q197.197266-1.289063 195.981445-0.571289Q194.765625 0.146484 193.125000 0.146484Q192.099609 0.146484 191.176758-0.087891Q190.253906-0.322266 189.580078-0.703125L189.580078-3.750000Q190.546875-2.607422 191.953125-2.607422Q192.832031-2.607422 193.549805-3.046875Q194.267578-3.486328 194.780273-4.233398Q195.292969-4.980469 195.585938-6.020508Q195.878906-7.060547 195.878906-8.232422Q195.878906-9.375000 195.615234-10.400391Q195.351563-11.425781 194.868164-12.216797Q194.384766-13.007813 193.696289-13.476563Q193.007813-13.945313 192.099609-13.945313Q191.337891-13.945313 190.708008-13.637695Q190.078125-13.330078 189.580078-12.773438L189.580078-15.878906Q190.253906-16.259766 191.074219-16.464844Q191.894531-16.669922 192.773438-16.669922Q193.740234-16.669922 194.736328-16.406250Q195.732422-16.142578 196.596680-15.527344Q197.460938-14.912109 198.164063-13.916016Q198.867188-12.919922 199.248047-11.513672ZM211.318359-16.611328Q212.929688-16.523438 214.248047-15.834961Q215.566406-15.146484 216.459961-14.018555Q217.353516-12.890625 217.851563-11.396484Q218.349609-9.902344 218.349609-8.203125Q218.349609-6.503906 217.836914-5.024414Q217.324219-3.544922 216.416016-2.446289Q215.507813-1.347656 214.189453-0.673828Q212.871094 0 211.318359 0.117188L211.318359-2.695313Q212.783203-3.017578 213.706055-4.541016Q214.628906-6.064453 214.628906-8.203125Q214.628906-9.287109 214.409180-10.239258Q214.189453-11.191406 213.750000-11.953125Q213.310547-12.714844 212.695313-13.212891Q212.080078-13.710938 211.318359-13.857422L211.318359-16.611328M203.144531-8.261719Q203.144531-9.960938 203.642578-11.425781Q204.140625-12.890625 205.063477-13.989258Q205.986328-15.087891 207.275391-15.761719Q208.564453-16.435547 210.117188-16.582031L210.117188-13.857422Q208.652344-13.535156 207.773438-12.011719Q206.894531-10.488281 206.894531-8.349609Q206.894531-7.265625 207.114258-6.298828Q207.333984-5.332031 207.744141-4.570313Q208.154297-3.808594 208.754883-3.310547Q209.355469-2.812500 210.117188-2.695313L210.117188 0.117188Q208.505859 0 207.216797-0.688477Q205.927734-1.376953 205.019531-2.490234Q204.111328-3.603516 203.627930-5.097656Q203.144531-6.591797 203.144531-8.261719ZM226.113281-16.523438L226.494141-14.824219L226.494141-5.859375L226.494141-5.800781L226.494141 0L222.949219 0L222.949219-16.523438L226.113281-16.523438M227.695313-15.791016Q228.427734-16.201172 229.453125-16.420898Q230.478516-16.640625 232.236328-16.640625L232.236328-12.949219Q231.416016-13.183594 230.244141-13.212891Q229.599609-13.212891 228.940430-13.110352Q228.281250-13.007813 227.695313-12.802734L227.695313-15.791016ZM240.732422-5.009766Q240.732422-4.013672 240.996094-3.457031Q241.259766-2.900391 241.743164-2.607422Q242.226563-2.314453 242.827148-2.241211Q243.427734-2.167969 244.101563-2.167969L244.101563 0Q243.720703 0.058594 243.339844 0.087891Q243.017578 0.117188 242.563477 0.131836Q242.109375 0.146484 241.669922 0.146484Q241.230469 0.146484 240.776367 0.117188Q240.322266 0.087891 240 0.029297Q239.003906-0.146484 238.447266-0.834961Q237.890625-1.523438 237.612305-2.358398Q237.333984-3.193359 237.260742-3.984375Q237.187500-4.775391 237.187500-5.214844L237.187500-14.121094L235.019531-14.121094L235.019531-16.523438L237.187500-16.523438L237.187500-21.210938L240.732422-21.210938L240.732422-16.523438L243.369141-16.523438L243.369141-14.121094L240.732422-14.121094L240.732422-5.009766Z" transform="matrix(0.8202552022501604,0,0,0.8202552022501604,139.42886532548044,141.06204161800127)" data-str-tmatrix="1,0,0,1,98.05,149.65" data-str-color="rgb(31,72,65)" data-str-text="Traxx Transport" data-str-default_text="Enter Text" data-str-fontsize="30" data-str-font_family="Allerta Stencil" data-str-hastextedit="true" data-str-fonticons="true" data-str-bold="false" data-str-italic="false" data-str-data="" data-str-letter_spacing="0" data-str-use_path="false" data-str-txt_dy="0" data-lyt_name="line_1"/>
    <path style="stroke:none;fill-rule:evenodd;fill:rgb(48.235294%,52.549020%,52.941176%);fill-opacity:1" d="M8.601563 0L1.652344 0Q1.488281 0 1.347656-0.058594Q1.207031-0.117188 1.104492-0.219727Q1.001953-0.322266 0.943359-0.462891Q0.884766-0.603516 0.884766-0.767578L0.884766-8.402344L2.408203-8.402344L2.408203-1.523438L8.601563-1.523438L8.601563 0ZM16.441406-2.138672Q16.441406-1.746094 16.341797-1.432617Q16.242188-1.119141 16.078125-0.881836Q15.914063-0.644531 15.697266-0.477539Q15.480469-0.310547 15.243164-0.205078Q15.005859-0.099609 14.762695-0.049805Q14.519531 0 14.302734 0L11.554688 0Q11.238281 0 10.863281-0.111328Q10.488281-0.222656 10.168945-0.477539Q9.849609-0.732422 9.635742-1.139648Q9.421875-1.546875 9.421875-2.138672L9.421875-4.201172Q9.421875-4.787109 9.635742-5.194336Q9.849609-5.601563 10.168945-5.856445Q10.488281-6.111328 10.863281-6.222656Q11.238281-6.333984 11.554688-6.333984L14.302734-6.333984Q14.888672-6.333984 15.298828-6.123047Q15.708984-5.912109 15.960938-5.592773Q16.212891-5.273438 16.327148-4.898438Q16.441406-4.523438 16.441406-4.201172L16.441406-2.138672M14.917969-4.189453Q14.917969-4.505859 14.759766-4.658203Q14.601563-4.810547 14.302734-4.810547L11.566406-4.810547Q11.261719-4.810547 11.103516-4.655273Q10.945313-4.500000 10.945313-4.201172L10.945313-2.138672Q10.945313-1.839844 11.103516-1.681641Q11.261719-1.523438 11.566406-1.523438L14.302734-1.523438Q14.613281-1.523438 14.765625-1.681641Q14.917969-1.839844 14.917969-2.138672L14.917969-4.189453ZM24.626953 0.609375Q24.626953 1.001953 24.527344 1.315430Q24.427734 1.628906 24.263672 1.866211Q24.099609 2.103516 23.882813 2.270508Q23.666016 2.437500 23.428711 2.542969Q23.191406 2.648438 22.948242 2.698242Q22.705078 2.748047 22.488281 2.748047L19.740234 2.748047L19.740234 1.224609L22.488281 1.224609Q22.798828 1.224609 22.951172 1.066406Q23.103516 0.908203 23.103516 0.609375L23.103516-4.201172Q23.103516-4.500000 22.951172-4.655273Q22.798828-4.810547 22.488281-4.810547L19.740234-4.810547Q19.458984-4.810547 19.294922-4.637695Q19.130859-4.464844 19.130859-4.201172L19.130859-2.138672Q19.130859-1.839844 19.289063-1.681641Q19.447266-1.523438 19.751953-1.523438L22.488281-1.523438L22.488281 0L19.740234 0Q19.523438 0 19.283203-0.049805Q19.042969-0.099609 18.805664-0.205078Q18.568359-0.310547 18.351563-0.477539Q18.134766-0.644531 17.970703-0.881836Q17.806641-1.119141 17.707031-1.432617Q17.607422-1.746094 17.607422-2.138672L17.607422-4.201172Q17.607422-4.417969 17.657227-4.658203Q17.707031-4.898438 17.812500-5.135742Q17.917969-5.373047 18.084961-5.589844Q18.251953-5.806641 18.489258-5.970703Q18.726563-6.134766 19.037109-6.234375Q19.347656-6.333984 19.740234-6.333984L22.488281-6.333984Q22.705078-6.333984 22.948242-6.284180Q23.191406-6.234375 23.428711-6.128906Q23.666016-6.023438 23.882813-5.856445Q24.099609-5.689453 24.263672-5.452148Q24.427734-5.214844 24.527344-4.904297Q24.626953-4.593750 24.626953-4.201172L24.626953 0.609375ZM27.568359-7.634766L26.044922-7.634766L26.044922-9.011719L27.568359-9.011719L27.568359-7.634766M27.568359 0L26.044922 0L26.044922-6.333984L27.568359-6.333984L27.568359 0ZM35.150391-2.138672Q35.150391-1.746094 35.050781-1.432617Q34.951172-1.119141 34.787109-0.881836Q34.623047-0.644531 34.406250-0.477539Q34.189453-0.310547 33.952148-0.205078Q33.714844-0.099609 33.471680-0.049805Q33.228516 0 33.011719 0L28.886719 0L28.886719-1.523438L33-1.523438Q33.310547-1.523438 33.468750-1.681641Q33.626953-1.839844 33.626953-2.138672Q33.597656-2.748047 33.011719-2.748047L30.650391-2.748047Q30.146484-2.748047 29.794922-2.923828Q29.443359-3.099609 29.223633-3.363281Q29.003906-3.626953 28.907227-3.931641Q28.810547-4.236328 28.810547-4.500000Q28.810547-5.009766 28.992188-5.358398Q29.173828-5.707031 29.449219-5.923828Q29.724609-6.140625 30.046875-6.237305Q30.369141-6.333984 30.650391-6.333984L34.394531-6.333984L34.394531-4.810547L30.662109-4.810547Q30.544922-4.810547 30.477539-4.784180Q30.410156-4.757813 30.377930-4.713867Q30.345703-4.669922 30.339844-4.620117Q30.333984-4.570313 30.333984-4.523438Q30.339844-4.429688 30.369141-4.376953Q30.398438-4.324219 30.442383-4.300781Q30.486328-4.277344 30.541992-4.274414Q30.597656-4.271484 30.650391-4.271484L33.011719-4.271484Q33.597656-4.271484 34.007813-4.060547Q34.417969-3.849609 34.669922-3.530273Q34.921875-3.210938 35.036133-2.835938Q35.150391-2.460938 35.150391-2.138672ZM41.871094-4.810547L39.210938-4.810547L39.210938 0L37.669922 0L37.669922-4.810547L35.689453-4.810547L35.689453-6.333984L37.669922-6.333984L37.669922-8.402344L39.210938-8.402344L39.210938-6.333984L41.871094-6.333984L41.871094-4.810547ZM44.419922-7.634766L42.896484-7.634766L42.896484-9.011719L44.419922-9.011719L44.419922-7.634766M44.419922 0L42.896484 0L42.896484-6.333984L44.419922-6.333984L44.419922 0ZM52.013672 0L47.882813 0Q47.566406 0 47.191406-0.111328Q46.816406-0.222656 46.497070-0.477539Q46.177734-0.732422 45.963867-1.139648Q45.750000-1.546875 45.750000-2.138672L45.750000-4.201172Q45.750000-4.417969 45.799805-4.658203Q45.849609-4.898438 45.955078-5.135742Q46.060547-5.373047 46.227539-5.589844Q46.394531-5.806641 46.631836-5.970703Q46.869141-6.134766 47.179688-6.234375Q47.490234-6.333984 47.882813-6.333984L52.013672-6.333984L52.013672-4.810547L47.882813-4.810547Q47.583984-4.810547 47.428711-4.658203Q47.273438-4.505859 47.273438-4.189453L47.273438-2.138672Q47.273438-1.839844 47.431641-1.681641Q47.589844-1.523438 47.894531-1.523438L52.013672-1.523438L52.013672 0ZM59.396484-2.138672Q59.396484-1.746094 59.296875-1.432617Q59.197266-1.119141 59.033203-0.881836Q58.869141-0.644531 58.652344-0.477539Q58.435547-0.310547 58.198242-0.205078Q57.960938-0.099609 57.717773-0.049805Q57.474609 0 57.257813 0L53.132813 0L53.132813-1.523438L57.246094-1.523438Q57.556641-1.523438 57.714844-1.681641Q57.873047-1.839844 57.873047-2.138672Q57.843750-2.748047 57.257813-2.748047L54.896484-2.748047Q54.392578-2.748047 54.041016-2.923828Q53.689453-3.099609 53.469727-3.363281Q53.250000-3.626953 53.153320-3.931641Q53.056641-4.236328 53.056641-4.500000Q53.056641-5.009766 53.238281-5.358398Q53.419922-5.707031 53.695313-5.923828Q53.970703-6.140625 54.292969-6.237305Q54.615234-6.333984 54.896484-6.333984L58.640625-6.333984L58.640625-4.810547L54.908203-4.810547Q54.791016-4.810547 54.723633-4.784180Q54.656250-4.757813 54.624023-4.713867Q54.591797-4.669922 54.585938-4.620117Q54.580078-4.570313 54.580078-4.523438Q54.585938-4.429688 54.615234-4.376953Q54.644531-4.324219 54.688477-4.300781Q54.732422-4.277344 54.788086-4.274414Q54.843750-4.271484 54.896484-4.271484L57.257813-4.271484Q57.843750-4.271484 58.253906-4.060547Q58.664063-3.849609 58.916016-3.530273Q59.167969-3.210938 59.282227-2.835938Q59.396484-2.460938 59.396484-2.138672ZM72.609375-2.472656Q72.609375-2.021484 72.495117-1.661133Q72.380859-1.300781 72.193359-1.025391Q72.005859-0.750000 71.753906-0.556641Q71.501953-0.363281 71.232422-0.240234Q70.962891-0.117188 70.684570-0.058594Q70.406250 0 70.160156 0L64.283203 0L64.283203-1.523438L70.160156-1.523438Q70.599609-1.523438 70.842773-1.781250Q71.085938-2.039063 71.085938-2.472656Q71.085938-2.683594 71.021484-2.859375Q70.957031-3.035156 70.836914-3.164063Q70.716797-3.292969 70.543945-3.363281Q70.371094-3.433594 70.160156-3.433594L66.656250-3.433594Q66.287109-3.433594 65.859375-3.565430Q65.431641-3.697266 65.065430-3.990234Q64.699219-4.283203 64.456055-4.757813Q64.212891-5.232422 64.212891-5.917969Q64.212891-6.603516 64.456055-7.075195Q64.699219-7.546875 65.065430-7.842773Q65.431641-8.138672 65.859375-8.270508Q66.287109-8.402344 66.656250-8.402344L71.841797-8.402344L71.841797-6.878906L66.656250-6.878906Q66.222656-6.878906 65.979492-6.615234Q65.736328-6.351563 65.736328-5.917969Q65.736328-5.478516 65.979492-5.223633Q66.222656-4.968750 66.656250-4.968750L70.160156-4.968750L70.171875-4.968750Q70.417969-4.962891 70.693359-4.901367Q70.968750-4.839844 71.241211-4.710938Q71.513672-4.582031 71.759766-4.385742Q72.005859-4.189453 72.196289-3.914063Q72.386719-3.638672 72.498047-3.281250Q72.609375-2.923828 72.609375-2.472656ZM75.251953-7.634766L73.728516-7.634766L73.728516-9.011719L75.251953-9.011719L75.251953-7.634766M75.251953 0L73.728516 0L73.728516-6.333984L75.251953-6.333984L75.251953 0ZM82.365234 0L80.841797 0L80.841797-4.201172Q80.841797-4.500000 80.683594-4.655273Q80.525391-4.810547 80.214844-4.810547L78.234375-4.810547L78.234375 0L76.710938 0L76.710938-5.578125Q76.710938-5.736328 76.769531-5.874023Q76.828125-6.011719 76.933594-6.114258Q77.039063-6.216797 77.179688-6.275391Q77.320313-6.333984 77.478516-6.333984L80.226563-6.333984Q80.542969-6.333984 80.906250-6.222656Q81.269531-6.111328 81.597656-5.865234L81.597656-6.333984L83.660156-6.333984Q83.876953-6.333984 84.117188-6.284180Q84.357422-6.234375 84.594727-6.128906Q84.832031-6.023438 85.048828-5.856445Q85.265625-5.689453 85.429688-5.452148Q85.593750-5.214844 85.693359-4.904297Q85.792969-4.593750 85.792969-4.201172L85.792969 0L84.269531 0L84.269531-4.201172Q84.269531-4.500000 84.120117-4.655273Q83.970703-4.810547 83.660156-4.810547L82.289063-4.810547Q82.365234-4.529297 82.365234-4.201172L82.365234 0ZM94.177734-2.138672Q94.177734-1.746094 94.078125-1.432617Q93.978516-1.119141 93.814453-0.881836Q93.650391-0.644531 93.433594-0.477539Q93.216797-0.310547 92.979492-0.205078Q92.742188-0.099609 92.501953-0.049805Q92.261719 0 92.044922 0L89.296875 0L89.296875-1.523438L92.044922-1.523438Q92.349609-1.523438 92.501953-1.681641Q92.654297-1.839844 92.654297-2.138672L92.654297-4.189453Q92.654297-4.505859 92.499023-4.658203Q92.343750-4.810547 92.044922-4.810547L89.308594-4.810547Q88.998047-4.810547 88.839844-4.655273Q88.681641-4.500000 88.681641-4.201172L88.681641 1.980469L87.158203 1.980469L87.158203-4.201172Q87.158203-4.593750 87.257813-4.904297Q87.357422-5.214844 87.524414-5.452148Q87.691406-5.689453 87.908203-5.856445Q88.125000-6.023438 88.362305-6.128906Q88.599609-6.234375 88.842773-6.284180Q89.085938-6.333984 89.296875-6.333984L92.044922-6.333984Q92.437500-6.333984 92.748047-6.234375Q93.058594-6.134766 93.295898-5.970703Q93.533203-5.806641 93.700195-5.589844Q93.867188-5.373047 93.972656-5.135742Q94.078125-4.898438 94.127930-4.658203Q94.177734-4.417969 94.177734-4.201172L94.177734-2.138672ZM98.261719 0L97.582031 0Q97.253906 0 96.881836-0.111328Q96.509766-0.222656 96.187500-0.477539Q95.865234-0.732422 95.654297-1.139648Q95.443359-1.546875 95.443359-2.138672L95.443359-9.011719L96.966797-9.011719L96.966797-2.138672Q96.966797-1.857422 97.142578-1.690430Q97.318359-1.523438 97.582031-1.523438L98.261719-1.523438L98.261719 0ZM100.787109-7.634766L99.263672-7.634766L99.263672-9.011719L100.787109-9.011719L100.787109-7.634766M100.787109 0L99.263672 0L99.263672-6.333984L100.787109-6.333984L100.787109 0ZM107.853516-4.810547L104.408203-4.810547L104.408203-6.333984L107.853516-6.333984L107.853516-4.810547M107.853516-7.558594L104.419922-7.558594Q104.109375-7.558594 103.951172-7.403320Q103.792969-7.248047 103.792969-6.949219L103.792969 0L102.269531 0L102.269531-6.949219Q102.269531-7.341797 102.369141-7.652344Q102.468750-7.962891 102.635742-8.200195Q102.802734-8.437500 103.019531-8.604492Q103.236328-8.771484 103.473633-8.876953Q103.710938-8.982422 103.951172-9.032227Q104.191406-9.082031 104.408203-9.082031L107.853516-9.082031L107.853516-7.558594ZM110.396484-7.634766L108.873047-7.634766L108.873047-9.011719L110.396484-9.011719L110.396484-7.634766M110.396484 0L108.873047 0L108.873047-6.333984L110.396484-6.333984L110.396484 0ZM118.669922-4.236328Q118.669922-3.919922 118.558594-3.553711Q118.447266-3.187500 118.198242-2.874023Q117.949219-2.560547 117.547852-2.349609Q117.146484-2.138672 116.572266-2.138672L113.824219-2.138672L113.824219-3.585938L116.572266-3.585938Q116.882813-3.585938 117.052734-3.776367Q117.222656-3.966797 117.222656-4.248047Q117.222656-4.546875 117.032227-4.716797Q116.841797-4.886719 116.572266-4.886719L113.824219-4.886719Q113.513672-4.886719 113.343750-4.696289Q113.173828-4.505859 113.173828-4.224609L113.173828-2.097656Q113.173828-1.792969 113.364258-1.623047Q113.554688-1.453125 113.835938-1.453125L116.572266-1.453125L116.572266 0L113.824219 0Q113.507813 0 113.141602-0.111328Q112.775391-0.222656 112.461914-0.471680Q112.148438-0.720703 111.937500-1.122070Q111.726563-1.523438 111.726563-2.097656L111.726563-4.236328Q111.726563-4.552734 111.837891-4.918945Q111.949219-5.285156 112.198242-5.598633Q112.447266-5.912109 112.848633-6.123047Q113.250000-6.333984 113.824219-6.333984L116.572266-6.333984Q116.888672-6.333984 117.254883-6.222656Q117.621094-6.111328 117.934570-5.862305Q118.248047-5.613281 118.458984-5.211914Q118.669922-4.810547 118.669922-4.236328ZM126.644531-2.138672Q126.644531-1.746094 126.544922-1.432617Q126.445313-1.119141 126.281250-0.881836Q126.117188-0.644531 125.900391-0.477539Q125.683594-0.310547 125.446289-0.205078Q125.208984-0.099609 124.965820-0.049805Q124.722656 0 124.505859 0L121.757813 0Q121.365234 0 121.054688-0.099609Q120.744141-0.199219 120.506836-0.366211Q120.269531-0.533203 120.102539-0.750000Q119.935547-0.966797 119.830078-1.204102Q119.724609-1.441406 119.674805-1.684570Q119.625000-1.927734 119.625000-2.138672L119.625000-4.201172Q119.625000-4.787109 119.838867-5.194336Q120.052734-5.601563 120.372070-5.856445Q120.691406-6.111328 121.066406-6.222656Q121.441406-6.333984 121.757813-6.333984L124.505859-6.333984L124.505859-4.810547L121.769531-4.810547Q121.464844-4.810547 121.306641-4.655273Q121.148438-4.500000 121.148438-4.201172L121.148438-2.150391Q121.148438-1.839844 121.303711-1.681641Q121.458984-1.523438 121.757813-1.523438L124.505859-1.523438Q124.816406-1.523438 124.968750-1.681641Q125.121094-1.839844 125.121094-2.138672L125.121094-9.011719L126.644531-9.011719L126.644531-2.138672Z" transform="matrix(1,0,0,1,177,173)" data-str-tmatrix="1,0,0,1,155.5,170.5" data-str-color="rgb(123,134,135)" data-str-text="Logistics Simplified" data-str-default_text="Enter Text" data-str-fontsize="12" data-str-font_family="Audiowide" data-str-hastextedit="true" data-str-fonticons="true" data-str-bold="false" data-str-italic="false" data-str-data="" data-str-letter_spacing="0" data-str-use_path="false" data-str-txt_dy="0" data-lyt_name="line_2"/>
  </g>
  <g id="surface4">
  </g>
</svg>